<?xml version="1.0" encoding="UTF-8" standalone="no"?>
<svg
   xmlns:dc="http://purl.org/dc/elements/1.1/"
   xmlns:cc="http://creativecommons.org/ns#"
   xmlns:rdf="http://www.w3.org/1999/02/22-rdf-syntax-ns#"
   xmlns:svg="http://www.w3.org/2000/svg"
   xmlns="http://www.w3.org/2000/svg"
   width="107.99999pt"
   height="107.99999pt"
   viewBox="0 0 38.099995 38.099995"
   version="1.1"
   id="svg1095">
  <metadata
     id="metadata1101">
    <rdf:RDF>
      <cc:Work
         rdf:about="">
        <dc:format>image/svg+xml</dc:format>
        <dc:type
           rdf:resource="http://purl.org/dc/dcmitype/StillImage" />
        <dc:title></dc:title>
      </cc:Work>
    </rdf:RDF>
  </metadata>
  <defs
     id="defs1091">
    <clipPath
       clipPathUnits="userSpaceOnUse"
       id="clipPath893">
      <path
         d="M 0,807 H 712 V 0 H 0 Z"
         id="path891" />
    </clipPath>
    <mask
       maskUnits="userSpaceOnUse"
       x="0"
       y="0"
       width="1"
       height="1"
       id="mask907">
      <g
         id="g923">
        <g
           clip-path="url(#clipPath901)"
           id="g921">
          <path
             d="m 163.75,548.25 h 384.5 v -384.5 h -384.5 z"
             style="fill:#000000;fill-opacity:1;fill-rule:nonzero;stroke:none"
             id="path909" />
          <g
             id="g919">
            <g
               id="g911" />
            <g
               id="g917">
              <g
                 clip-path="url(#clipPath905)"
                 id="g915">
                <path
                   d="M 99.917,612.083 H 612.586 V 99.414 H 99.917 Z"
                   style="fill:#ffffff;fill-opacity:1;fill-rule:nonzero;stroke:none"
                   id="path913" />
              </g>
            </g>
          </g>
        </g>
      </g>
    </mask>
    <clipPath
       clipPathUnits="userSpaceOnUse"
       id="clipPath901">
      <path
         d="m 163.75,548.25 h 384.5 v -384.5 h -384.5 z"
         id="path899" />
    </clipPath>
    <clipPath
       clipPathUnits="userSpaceOnUse"
       id="clipPath905">
      <path
         d="m 163.75,548.25 h 384.5 v -384.5 h -384.5 z"
         id="path903" />
    </clipPath>
    <clipPath
       clipPathUnits="userSpaceOnUse"
       id="clipPath931">
      <path
         d="m 163.75,548.25 h 384.5 v -384.5 h -384.5 z"
         id="path929" />
    </clipPath>
    <clipPath
       clipPathUnits="userSpaceOnUse"
       id="clipPath935">
      <path
         d="M 164,548 H 548 V 164 H 164 Z"
         id="path933" />
    </clipPath>
    <clipPath
       clipPathUnits="userSpaceOnUse"
       id="clipPath939">
      <path
         d="M 164.066,547.968 H 547.999 V 163.956 H 164.066 Z"
         id="path937" />
    </clipPath>
    <clipPath
       clipPathUnits="userSpaceOnUse"
       id="clipPath943">
      <path
         d="M 164.02,547.93 H 547.835 V 164.176 H 164.02 Z"
         id="path941" />
    </clipPath>
    <clipPath
       clipPathUnits="userSpaceOnUse"
       id="clipPath947">
      <path
         d="m 299.75,548.25 h 0.5 v -384.5 h -0.5 z"
         id="path945" />
    </clipPath>
    <clipPath
       clipPathUnits="userSpaceOnUse"
       id="clipPath951">
      <path
         d="m 355.75,548.25 h 0.5 v -384.5 h -0.5 z"
         id="path949" />
    </clipPath>
    <clipPath
       clipPathUnits="userSpaceOnUse"
       id="clipPath955">
      <path
         d="m 411.83,548.25 h 0.5 v -384.5 h -0.5 z"
         id="path953" />
    </clipPath>
    <clipPath
       clipPathUnits="userSpaceOnUse"
       id="clipPath959">
      <path
         d="m 163.9,412.1 h 383.933 v -0.2 H 163.9 Z"
         id="path957" />
    </clipPath>
    <clipPath
       clipPathUnits="userSpaceOnUse"
       id="clipPath963">
      <path
         d="m 163.9,356.1 h 383.933 v -0.2 H 163.9 Z"
         id="path961" />
    </clipPath>
    <clipPath
       clipPathUnits="userSpaceOnUse"
       id="clipPath967">
      <path
         d="m 163.75,300.25 h 384.233 v -0.5 H 163.75 Z"
         id="path965" />
    </clipPath>
  </defs>
  <g
     id="layer1">
    <path
       d="m 1.0186104,11.266631 c 0.450779,0.161403 0.8193058,0.257789 1.2426493,0.317308 0.9657673,0.135778 1.9564388,0.204005 2.9245291,0.08585 0.3764993,-0.04595 0.7474674,-0.125117 1.1144202,-0.223698 0.3173799,-0.08527 0.6315897,-0.185422 0.9438366,-0.29129 0.2801461,-0.09498 0.5588071,-0.194457 0.8362024,-0.292833 1.2407674,-0.440026 2.376603,-0.574867 3.589303,-0.59817 0.09314,-0.0018 0.186375,-0.0024 0.934625,0.001 0.748252,0.0034 2.190683,0.252368 3.500438,0.563887 0.468023,0.111312 0.828248,0.214571 1.143504,0.326137 0.625797,0.22146 1.07107,0.476419 1.807439,0.896904 0.736372,-0.420484 1.181644,-0.675444 1.807437,-0.896903 0.31526,-0.111569 0.675484,-0.214816 1.14351,-0.326134 1.397069,-0.332286 2.945131,-0.593502 4.4352,-0.56487 1.212699,0.02331 2.348678,0.158145 3.589442,0.598171 0.277433,0.0984 0.555594,0.200465 0.836062,0.292833 0.312692,0.102975 0.626359,0.206033 0.943699,0.291285 0.366951,0.09859 0.737923,0.177749 1.114419,0.2237 0.968091,0.118155 1.958926,0.05039 2.924669,-0.08585 0.406378,-0.05734 0.758346,-0.12335 1.192634,-0.30576"
       style="fill:#ffffff;fill-opacity:1;stroke:#0d2481;stroke-width:1.33895;stroke-linecap:round;stroke-miterlimit:4;stroke-dasharray:none;stroke-opacity:1"
       id="rect1173" />
    <path
       d="m 3.6206414,13.243354 c -0.2190305,-0.0076 -0.4118487,0.08057 -0.5567205,0.219947 -0.2317964,0.222993 -0.4124149,0.59724 -0.097828,1.11493 0.3145856,0.517687 1.6251139,2.874168 2.2966212,3.938528 0.7100339,1.125425 0.8693104,1.264959 1.2201938,2.643808 0.3806608,1.495855 0.2844917,1.849635 0.3058775,3.202022 0.02139,1.352384 -0.2305187,2.522778 -0.3716461,2.825083 -0.1411202,0.302305 -0.3837086,0.674047 -0.3837086,0.674047 0,0 -2.4699078,4.377442 -2.6188531,4.612251 -0.1489438,0.234802 -0.3460967,0.652821 -0.3475188,0.971163 -5.276e-4,0.114508 0.082929,0.593102 0.6791716,0.656034 0.5962407,0.06293 1.0277441,-0.547616 1.1459963,-0.661654 0.1182542,-0.114031 2.3009651,-4.083495 2.6733902,-4.557058 0.3724192,-0.473553 0.9681875,-0.437076 0.9681875,-0.437076 0,0 0.5956037,-0.03647 0.9680244,0.437076 0.372422,0.473563 2.5553022,4.443017 2.6735552,4.557058 0.11826,0.11403 0.549756,0.724584 1.145997,0.661654 0.596242,-0.06293 0.679682,-0.541532 0.67917,-0.656034 -0.0015,-0.318342 -0.198571,-0.736361 -0.347518,-0.971163 -0.148943,-0.234809 -2.618859,-4.612251 -2.618859,-4.612251 0,0 -0.242742,-0.371742 -0.383869,-0.674047 -0.14112,-0.302305 -0.393026,-1.472699 -0.371643,-2.825083 0.02139,-1.352387 -0.07462,-1.706167 0.306039,-3.202022 0.350888,-1.378849 0.510163,-1.518383 1.220197,-2.643808 0.671508,-1.06436 1.982034,-3.420841 2.29662,-3.938528 0.314585,-0.51769 0.133967,-0.891937 -0.09782,-1.11493 -0.231795,-0.222994 -0.586334,-0.315022 -0.974636,-0.09303 -0.3883,0.221989 -0.988003,1.064296 -1.657607,2.265388 -0.669601,1.201101 -1.6452118,2.882265 -1.6452118,2.882265 0,0 -0.10627,0.174096 -0.2250673,0.17665 C 9.3823884,18.697174 9.34105,18.561227 9.34105,18.561227 L 9.318075,17.688383 c 0.4256489,-0.268497 0.684332,-0.736107 0.685616,-1.239364 6e-5,-0.811817 -0.6580652,-1.469945 -1.4698845,-1.469881 -0.8117539,2.9e-5 -1.4697814,0.658129 -1.4697194,1.469881 0.0013,0.503168 0.2599141,0.970695 0.685451,1.239197 l -0.022962,0.873011 c 0,0 -0.041338,0.135899 -0.1601261,0.133347 -0.1187925,-0.0026 -0.2250696,-0.17665 -0.2250696,-0.17665 0,0 -0.9756068,-1.681164 -1.6452114,-2.882265 C 5.0265591,14.43456 4.426856,13.592253 4.0385547,13.370265 3.8929426,13.287026 3.7520611,13.247967 3.6206414,13.243351 Z"
       style="fill:#0d2481;fill-opacity:1;stroke:#000000;stroke-width:0.084607px;stroke-linecap:butt;stroke-linejoin:miter;stroke-opacity:0"
       id="path1115-6" />
    <path
       id="path1115-6-3"
       style="fill:#0d2481;fill-opacity:1;stroke:#000000;stroke-width:0.084607px;stroke-linecap:butt;stroke-linejoin:miter;stroke-opacity:0"
       d="m 34.617401,13.243354 c 0.219029,-0.0076 0.411849,0.08057 0.556718,0.219947 0.231796,0.222993 0.412418,0.59724 0.09784,1.11493 -0.314586,0.517687 -1.625117,2.874168 -2.296621,3.938528 -0.710032,1.125425 -0.869308,1.264959 -1.220195,2.643808 -0.380661,1.495855 -0.284489,1.849635 -0.305873,3.202022 -0.02137,1.352384 0.230513,2.522778 0.371643,2.825083 0.141121,0.302305 0.383706,0.674047 0.383706,0.674047 0,0 2.46991,4.377442 2.618856,4.612251 0.148943,0.234802 0.346096,0.652821 0.347519,0.971163 4.06e-4,0.114508 -0.08294,0.593102 -0.679171,0.656034 -0.596244,0.06293 -1.027742,-0.547616 -1.145999,-0.661654 -0.11826,-0.114031 -2.300963,-4.083495 -2.673389,-4.557058 -0.37242,-0.473553 -0.96819,-0.437076 -0.96819,-0.437076 0,0 -0.595603,-0.03647 -0.968022,0.437076 -0.372422,0.473563 -2.555302,4.443017 -2.673553,4.557058 -0.11826,0.11403 -0.54976,0.724584 -1.146001,0.661654 -0.596242,-0.06293 -0.679682,-0.541532 -0.679168,-0.656034 0.0015,-0.318342 0.198572,-0.736361 0.347517,-0.971163 0.148942,-0.234809 2.618857,-4.612251 2.618857,-4.612251 0,0 0.242742,-0.371742 0.383871,-0.674047 0.141121,-0.302305 0.393027,-1.472699 0.371644,-2.825083 -0.02139,-1.352387 0.07461,-1.706167 -0.306039,-3.202022 -0.350888,-1.378849 -0.510161,-1.518383 -1.220197,-2.643808 -0.67151,-1.06436 -1.982034,-3.420841 -2.296621,-3.938528 -0.314585,-0.51769 -0.133966,-0.891937 0.09782,-1.11493 0.231797,-0.222994 0.586335,-0.315022 0.974637,-0.09303 0.388297,0.221989 0.988004,1.064296 1.657608,2.265388 0.669598,1.201101 1.645211,2.882265 1.645211,2.882265 0,0 0.10627,0.174096 0.225067,0.17665 0.118787,0.0026 0.160125,-0.133347 0.160125,-0.133347 l 0.02298,-0.872844 c -0.425649,-0.268497 -0.684331,-0.736107 -0.685617,-1.239364 -6e-5,-0.811817 0.658065,-1.469945 1.469883,-1.469881 0.811757,2.9e-5 1.469786,0.658129 1.469722,1.469881 -0.0012,0.503168 -0.259918,0.970695 -0.685452,1.239197 l 0.02296,0.873011 c 0,0 0.04134,0.135899 0.160127,0.133347 0.118787,-0.0026 0.22507,-0.17665 0.22507,-0.17665 0,0 0.975607,-1.681164 1.645211,-2.882265 0.669603,-1.201092 1.269306,-2.043399 1.657606,-2.265388 0.145609,-0.08323 0.286495,-0.122294 0.417914,-0.126912 z" />
    <path
       d="M 33.439552,7.9719335 C 33.211795,7.9648114 33.151466,7.9662358 32.92536,7.9387117 32.548862,7.8927687 32.177853,7.813639 31.810902,7.7150561 31.208772,7.5532947 30.617512,7.3389088 30.030932,7.1308846 28.790164,6.6908587 27.654312,6.5561416 26.441613,6.5328382 26.348478,6.531085 26.25524,6.530318 26.16171,6.5307563 24.758737,6.5371114 23.316276,6.7861337 22.006526,7.0976507 20.609455,7.4299401 20.162891,7.6882989 19.055557,8.3206147 17.948224,7.6882989 17.501657,7.4299401 16.104589,7.0976507 14.794838,6.7861337 13.352378,6.537072 11.949407,6.5307541 11.855877,6.530283 11.762631,6.5310412 11.669502,6.532836 10.456802,6.5561416 9.3209519,6.6908566 8.0801823,7.1308824 7.493606,7.3389066 6.90234,7.5532925 6.3002137,7.7150539 5.9332591,7.8136455 5.5622544,7.892761 5.1857572,7.9387128 4.9596466,7.9663136 4.8994684,7.9647906 4.6717115,7.9719346"
       style="fill:#ffffff;fill-opacity:1;stroke:#0d2481;stroke-width:0.743985;stroke-linecap:round;stroke-linejoin:round;stroke-miterlimit:4;stroke-dasharray:none;stroke-opacity:1"
       id="path1244-2" />
    <path
       id="path1244-2-0"
       style="fill:none;fill-opacity:0.0415012;stroke:#0d2481;stroke-width:0.743985;stroke-linecap:round;stroke-linejoin:round;stroke-miterlimit:4;stroke-dasharray:none;stroke-opacity:1"
       d="m 33.4396,9.4787293 c -0.227758,-0.00712 -0.288083,-0.0057 -0.514194,-0.033222 C 32.548908,9.3995536 32.177905,9.3204315 31.810951,9.2218508 31.208825,9.0600884 30.61756,8.8457025 30.03098,8.6376793 28.790213,8.1976557 27.65436,8.0629353 26.441664,8.0396362 c -0.09314,-0.00175 -0.186376,-0.00252 -0.279908,-0.00208 -1.402972,0.00636 -2.845429,0.2553773 -4.155182,0.5668965 -1.39707,0.3322905 -1.843635,0.5906472 -2.95097,1.2229656 C 17.948272,9.1950959 17.501709,8.9367392 16.104638,8.6044487 14.794885,8.2929296 13.352427,8.04387 11.949455,8.0375511 11.855926,8.0370799 11.762678,8.0378392 11.669548,8.0396329 10.45685,8.0629386 9.3209979,8.1976557 8.0802313,8.6376793 7.4936524,8.8457025 6.902389,9.0600884 6.3002597,9.2218508 5.9333081,9.3204425 5.5623004,9.3995591 5.1858032,9.4455097 4.9596944,9.4731105 4.899518,9.4715875 4.6717586,9.4787315" />
    <path
       d="m 27.560588,13.243354 c 0.21903,-0.0076 0.411846,0.08057 0.556721,0.219947 0.231793,0.222993 0.412412,0.59724 0.09782,1.11493 -0.314587,0.517687 -1.625114,2.874168 -2.296622,3.938528 -0.710034,1.125425 -0.869306,1.264959 -1.220193,2.643808 -0.380661,1.495855 -0.284492,1.849635 -0.305876,3.202022 -0.02137,1.352384 0.230517,2.522778 0.371644,2.825083 0.141121,0.302305 0.383708,0.674047 0.383708,0.674047 0,0 2.469907,4.377442 2.618855,4.612251 0.148944,0.234802 0.346095,0.652821 0.347516,0.971163 5.26e-4,0.114508 -0.08294,0.593102 -0.679169,0.656034 -0.596241,0.06293 -1.027746,-0.547616 -1.145997,-0.661654 -0.118248,-0.114031 -2.300967,-4.083495 -2.673388,-4.557058 -0.372421,-0.473553 -0.968192,-0.437076 -0.968192,-0.437076 0,0 -0.595602,-0.03647 -0.968024,0.437076 -0.37242,0.473563 -2.555302,4.443017 -2.673554,4.557058 -0.11826,0.11403 -0.549756,0.724584 -1.145995,0.661654 -0.596244,-0.06293 -0.679684,-0.541532 -0.679172,-0.656034 0.0015,-0.318342 0.19857,-0.736361 0.347518,-0.971163 0.148944,-0.234809 2.618855,-4.612251 2.618855,-4.612251 0,0 0.242745,-0.371742 0.383873,-0.674047 0.14112,-0.302305 0.393028,-1.472699 0.371642,-2.825083 -0.02138,-1.352387 0.07463,-1.706167 -0.30604,-3.202022 -0.350887,-1.378849 -0.51016,-1.518383 -1.220193,-2.643808 -0.671509,-1.06436 -1.982035,-3.420841 -2.296625,-3.938528 -0.314581,-0.51769 -0.133965,-0.891937 0.09783,-1.11493 0.231797,-0.222994 0.586332,-0.315022 0.974635,-0.09303 0.388302,0.221989 0.988007,1.064296 1.657608,2.265388 0.6696,1.201101 1.64521,2.882265 1.64521,2.882265 0,0 0.10627,0.174096 0.22507,0.17665 0.118787,0.0026 0.160126,-0.133347 0.160126,-0.133347 l 0.02297,-0.872844 c -0.425649,-0.268497 -0.684331,-0.736107 -0.685615,-1.239364 -6.3e-5,-0.811817 0.658064,-1.469945 1.469882,-1.469881 0.811757,2.9e-5 1.469785,0.658129 1.469721,1.469881 -0.0013,0.503168 -0.259914,0.970695 -0.685451,1.239197 l 0.02298,0.873011 c 0,0 0.04134,0.135899 0.160125,0.133347 0.118787,-0.0026 0.225067,-0.17665 0.225067,-0.17665 0,0 0.975612,-1.681164 1.645216,-2.882265 0.6696,-1.201092 1.269304,-2.043399 1.657605,-2.265388 0.145613,-0.08323 0.286494,-0.122294 0.417914,-0.126912 z"
       style="fill:#0d2481;fill-opacity:1;stroke:#000000;stroke-width:0.084607px;stroke-linecap:butt;stroke-linejoin:miter;stroke-opacity:0"
       id="path1115-6-3-7" />
    <path
       d="m 20.503781,13.243354 c 0.219033,-0.0076 0.411849,0.08057 0.556721,0.219947 0.231793,0.222993 0.412413,0.59724 0.09783,1.11493 -0.31459,0.517687 -1.625114,2.874168 -2.296624,3.938528 -0.710034,1.125425 -0.869306,1.264959 -1.220193,2.643808 -0.380662,1.495855 -0.28449,1.849635 -0.305876,3.202022 -0.02137,1.352384 0.230519,2.522778 0.371643,2.825083 0.141121,0.302305 0.383708,0.674047 0.383708,0.674047 0,0 2.469911,4.377442 2.618857,4.612251 0.148943,0.234802 0.346094,0.652821 0.347516,0.971163 5.29e-4,0.114508 -0.08291,0.593102 -0.679171,0.656034 -0.59624,0.06293 -1.027745,-0.547616 -1.145995,-0.661654 -0.11826,-0.114031 -2.300968,-4.083495 -2.673391,-4.557058 -0.372418,-0.473553 -0.968189,-0.437076 -0.968189,-0.437076 0,0 -0.595603,-0.03647 -0.968025,0.437076 -0.37242,0.473563 -2.5553,4.443017 -2.673552,4.557058 -0.11826,0.11403 -0.549757,0.724584 -1.145996,0.661654 -0.596244,-0.06293 -0.679684,-0.541532 -0.679173,-0.656034 0.0015,-0.318342 0.198571,-0.736361 0.347517,-0.971163 0.148945,-0.234809 2.618857,-4.612251 2.618857,-4.612251 0,0 0.242744,-0.371742 0.383871,-0.674047 0.141135,-0.302305 0.393029,-1.472699 0.371643,-2.825083 -0.02137,-1.352387 0.07463,-1.706167 -0.30604,-3.202022 -0.350885,-1.378849 -0.510157,-1.518383 -1.220194,-2.643808 -0.67151,-1.06436 -1.982035,-3.420841 -2.29662,-3.938528 -0.3145864,-0.51769 -0.1339654,-0.891937 0.09782,-1.11493 0.231798,-0.222994 0.586336,-0.315022 0.97464,-0.09303 0.388299,0.221989 0.988004,1.064296 1.657607,2.265388 0.669601,1.201101 1.645209,2.882265 1.645209,2.882265 0,0 0.10627,0.174096 0.225069,0.17665 0.118787,0.0026 0.160126,-0.133347 0.160126,-0.133347 l 0.02298,-0.872844 c -0.42565,-0.268497 -0.684331,-0.736107 -0.685616,-1.239364 -6.4e-5,-0.811817 0.658064,-1.469945 1.469884,-1.469881 0.811753,2.9e-5 1.469781,0.658129 1.469719,1.469881 -0.0013,0.503168 -0.259914,0.970695 -0.685451,1.239197 l 0.02296,0.873011 c 0,0 0.04134,0.135899 0.160126,0.133347 0.118787,-0.0026 0.225069,-0.17665 0.225069,-0.17665 0,0 0.97561,-1.681164 1.645214,-2.882265 0.6696,-1.201092 1.269303,-2.043399 1.657604,-2.265388 0.145613,-0.08323 0.286497,-0.122294 0.417914,-0.126912 z"
       style="fill:#0d2481;fill-opacity:1;stroke:#000000;stroke-width:0.084607px;stroke-linecap:butt;stroke-linejoin:miter;stroke-opacity:0"
       id="path1115-6-3-3" />
  </g>
</svg>
